<?xml version="1.0" standalone="no"?>
<!DOCTYPE svg PUBLIC "-//W3C//DTD SVG 20010904//EN"
 "http://www.w3.org/TR/2001/REC-SVG-20010904/DTD/svg10.dtd">
<svg version="1.0" xmlns="http://www.w3.org/2000/svg"
 width="750.000000pt" height="1000.000000pt" viewBox="0 0 750.000000 1000.000000"
 preserveAspectRatio="xMidYMid meet">

<g transform="translate(0.000000,1000.000000) scale(0.100000,-0.100000)"
fill="#000000" stroke="none">
<path d="M3077 8083 c-46 -155 -60 -270 -54 -433 5 -134 15 -191 52 -308 7
-22 6 -22 -46 8 -70 41 -140 94 -211 159 -48 44 -59 50 -64 36 -12 -30 5 -157
35 -270 17 -60 29 -110 28 -111 -1 0 -22 -9 -47 -18 -150 -59 -451 -82 -658
-52 -178 26 -368 88 -459 150 -64 44 -75 15 -48 -135 30 -172 103 -368 175
-470 11 -15 20 -29 20 -32 0 -8 -105 20 -138 37 -29 15 -33 15 -38 1 -19 -48
35 -162 108 -231 27 -25 48 -47 46 -48 -2 -1 -25 -12 -53 -23 -171 -71 -315
-88 -458 -54 -48 11 -105 30 -127 41 -21 11 -44 20 -50 20 -31 0 11 -117 85
-235 58 -94 155 -191 251 -251 l73 -47 -24 -47 c-37 -73 -71 -107 -123 -124
-65 -21 -192 -38 -255 -35 -42 3 -53 0 -55 -13 -5 -24 67 -92 121 -114 26 -10
47 -22 47 -26 0 -12 -222 -116 -262 -124 -21 -3 -38 -12 -38 -19 0 -21 85 -92
150 -125 103 -52 196 -71 352 -73 76 -1 138 -4 138 -8 0 -3 -25 -35 -55 -71
-83 -101 -207 -183 -322 -213 -31 -8 -61 -19 -65 -23 -12 -12 63 -105 115
-143 47 -35 148 -83 195 -94 18 -3 32 -9 32 -11 0 -13 -40 -81 -57 -96 -10 -9
-45 -29 -77 -43 -56 -25 -58 -27 -42 -43 9 -9 37 -24 63 -33 l46 -15 17 -85
c28 -137 96 -253 184 -314 61 -41 160 -80 250 -96 48 -9 66 -17 66 -28 -1 -44
-32 -155 -59 -209 -28 -56 -29 -61 -12 -67 34 -11 164 48 205 94 11 12 23 21
29 21 16 0 2 -218 -18 -288 -13 -45 -15 -66 -7 -74 23 -23 187 37 268 98 l31
23 34 -23 c71 -48 381 -215 539 -290 281 -134 662 -282 805 -312 88 -19 137
-13 268 32 390 136 935 398 1215 586 l72 49 46 -35 c46 -35 169 -91 214 -98
22 -3 25 1 24 27 -1 17 -6 54 -13 84 -11 56 -15 173 -5 183 3 3 31 -9 61 -28
53 -31 92 -42 105 -28 3 3 0 29 -8 57 -17 63 -17 170 -1 216 10 27 20 36 52
46 104 31 230 116 286 194 38 53 72 156 79 235 l5 70 38 8 c86 18 126 60 68
73 -55 12 -118 61 -138 107 l-19 43 50 16 c110 34 222 108 270 177 32 47 29
72 -8 72 -55 0 -248 93 -271 130 -3 4 12 11 32 15 68 13 160 73 135 89 -6 3
-40 15 -76 26 -36 12 -66 24 -66 28 0 4 27 9 61 10 87 5 199 36 278 77 71 38
158 113 144 124 -4 4 -35 15 -68 25 -81 25 -189 79 -253 129 -98 75 -211 209
-266 315 l-15 30 67 40 c138 83 244 201 321 362 45 92 53 136 24 126 -10 -3
-58 -19 -106 -36 -58 -20 -117 -33 -170 -37 -189 -13 -421 67 -567 196 l-45
39 43 37 c67 58 123 171 94 189 -4 2 -29 -2 -55 -11 -26 -9 -50 -13 -53 -10
-3 3 12 28 34 57 50 66 126 210 145 276 22 76 6 85 -54 29 -50 -47 -146 -99
-249 -135 -36 -13 -84 -31 -108 -41 -24 -11 -45 -19 -46 -19 -2 0 -6 31 -9 69
-7 83 -63 256 -114 353 -37 71 -155 208 -168 196 -4 -4 0 -46 9 -93 23 -115
29 -204 19 -299 l-8 -78 -72 143 c-162 322 -396 568 -642 676 -105 45 -134 43
-107 -9 41 -78 108 -361 92 -387 -6 -9 -67 -1 -166 22 -206 49 -437 149 -615
268 -133 88 -284 236 -335 326 -20 35 -42 63 -51 63 -11 0 -23 -25 -42 -87z
m71 -17 c6 -13 38 -55 71 -94 141 -164 406 -335 677 -437 37 -14 73 -30 79
-35 6 -5 54 -26 106 -46 201 -77 226 -88 281 -131 31 -24 70 -59 86 -78 25
-32 30 -34 42 -20 10 12 10 28 -5 87 -38 159 -137 400 -204 498 l-41 60 54
-24 c151 -67 331 -223 466 -406 85 -114 275 -490 306 -604 15 -55 18 -60 37
-53 17 6 37 121 37 209 0 104 -46 353 -76 413 l-15 30 26 -30 c71 -82 155
-311 163 -448 5 -96 14 -109 54 -83 13 8 77 36 143 61 66 25 150 63 187 84
l67 39 -38 -48 c-99 -125 -260 -243 -388 -285 -29 -9 -53 -22 -53 -29 0 -21
51 -38 130 -42 l75 -3 36 -53 c128 -187 365 -310 624 -325 96 -5 173 6 280 42
30 10 -99 -110 -178 -166 -38 -26 -117 -68 -177 -93 -230 -98 -413 -120 -636
-80 -39 7 -52 -10 -29 -36 47 -52 268 -130 369 -130 23 0 66 -7 96 -15 50 -14
188 -45 217 -49 6 -1 32 -29 56 -63 110 -148 279 -278 422 -323 50 -16 61 -24
32 -27 -12 -1 -56 -8 -97 -17 -197 -40 -545 0 -565 65 -12 36 -35 22 -35 -21
0 -28 16 -71 57 -152 48 -94 71 -126 138 -193 88 -88 179 -146 267 -173 32 -9
58 -20 58 -23 0 -12 -174 -61 -248 -71 -42 -5 -123 -7 -179 -3 l-103 7 0 54
c0 90 -22 67 -69 -73 -24 -71 -51 -146 -61 -168 l-17 -40 -16 40 c-9 22 -21
47 -25 55 -5 9 -4 35 4 65 17 63 39 277 31 299 -8 21 -34 21 -41 -1 -3 -10
-19 -65 -37 -122 l-32 -105 -17 55 c-25 81 -65 164 -127 262 -66 105 -88 111
-68 19 8 -32 7 -33 -21 -27 -165 36 -328 116 -433 212 -108 99 -208 239 -231
323 -6 24 -16 40 -23 37 -16 -5 -72 -118 -94 -191 -9 -32 -23 -60 -30 -63 -6
-3 -55 16 -107 40 -260 124 -430 339 -506 645 -22 88 -30 98 -60 82 -22 -12
-23 -16 -17 -104 6 -102 29 -221 59 -311 26 -81 99 -233 136 -288 l31 -44 -64
-47 c-59 -44 -146 -134 -209 -218 -16 -21 -32 -38 -37 -38 -19 0 -89 280 -89
358 0 17 -2 32 -4 32 -17 0 -112 -59 -153 -95 -59 -52 -56 -53 -106 55 -49
106 -85 227 -103 344 -20 132 -21 134 -40 114 -11 -11 -18 -43 -21 -102 -6
-82 -8 -89 -42 -126 -42 -45 -90 -79 -172 -120 -68 -35 -95 -39 -84 -12 7 18
24 125 25 155 0 9 -7 17 -15 17 -9 0 -21 -24 -34 -68 -26 -86 -67 -149 -147
-230 -36 -36 -62 -67 -59 -70 2 -3 0 -12 -7 -19 -16 -19 5 -33 52 -33 l35 0
-30 -18 c-116 -69 -302 -134 -420 -148 l-50 -6 0 138 c0 83 -4 141 -10 144 -6
3 -20 -31 -31 -76 -16 -60 -35 -102 -73 -158 -29 -42 -79 -124 -111 -182 l-59
-106 -10 38 c-16 61 -31 165 -31 216 0 50 -7 78 -21 78 -19 0 -32 -86 -39
-265 -7 -180 -9 -195 -41 -287 -19 -54 -37 -98 -40 -98 -7 0 -46 151 -63 245
-6 39 -16 69 -22 68 -12 -3 -26 -81 -20 -113 4 -23 0 -27 -52 -42 -66 -20
-108 -21 -217 -8 -106 13 -278 51 -268 60 4 4 38 17 75 29 109 36 231 132 313
246 110 153 170 364 80 281 -75 -70 -382 -100 -572 -57 -45 10 -85 16 -88 13
-3 -3 -5 0 -5 6 0 7 8 12 18 12 28 1 145 54 208 96 81 54 179 149 239 233 32
45 57 70 70 71 11 0 54 10 95 21 41 11 117 27 169 35 51 8 120 21 153 30 124
32 258 108 258 146 0 16 -5 19 -22 15 -13 -3 -54 -12 -93 -21 -277 -62 -660
68 -890 303 -51 53 -53 61 -7 37 15 -7 63 -22 106 -31 178 -40 407 10 591 127
66 42 208 198 193 213 -2 2 -50 52 -108 112 -58 59 -117 124 -131 143 -56 78
-107 169 -133 235 -15 39 -32 80 -38 92 -17 34 -6 36 43 9 65 -36 234 -92 341
-113 72 -14 141 -18 308 -18 225 0 278 7 428 56 35 12 64 19 65 18 1 -2 23
-47 50 -100 68 -138 116 -208 207 -303 53 -55 77 -87 69 -91 -6 -4 -62 -10
-123 -12 -130 -6 -200 8 -309 63 -83 42 -95 37 -78 -33 37 -145 172 -308 316
-379 76 -38 82 -39 199 -42 94 -3 133 0 178 14 102 30 104 64 4 64 -79 0 -229
38 -329 84 -124 56 -211 123 -302 235 l-20 24 40 -20 c87 -44 154 -58 280 -56
84 0 133 6 164 17 37 14 47 14 60 3 58 -50 148 -84 321 -124 103 -24 385 -23
480 1 100 26 140 43 140 61 0 19 -3 20 -115 34 -184 24 -344 75 -535 171 -152
76 -262 143 -325 197 -158 137 -282 289 -364 445 -28 54 -51 101 -51 105 0 4
17 -9 38 -29 61 -58 141 -112 245 -166 160 -83 419 -159 463 -134 17 10 17 11
-6 21 -14 5 -50 17 -80 25 -55 15 -56 16 -108 104 -113 191 -189 453 -205 704
-3 36 -8 71 -11 77 -4 6 -3 11 2 11 5 0 14 -11 20 -24z m96 -2561 c30 -151
133 -383 196 -440 27 -24 35 -13 44 58 8 58 54 164 82 189 20 17 20 16 16 -75
-5 -117 9 -210 53 -345 38 -116 73 -184 130 -249 61 -72 72 -62 77 70 6 132
35 233 106 371 44 87 111 184 150 219 19 18 22 16 108 -52 139 -112 344 -201
462 -201 49 0 48 -4 16 80 -19 48 -33 260 -18 260 5 0 20 -24 34 -52 91 -189
232 -329 427 -427 83 -41 235 -91 279 -91 18 0 25 -8 33 -37 23 -84 42 -203
48 -296 6 -100 13 -118 38 -97 8 7 15 10 15 8 0 -32 -102 -489 -135 -604 -79
-276 -105 -306 -405 -479 -294 -170 -620 -323 -945 -443 -239 -89 -268 -90
-483 -16 -329 111 -668 262 -982 437 -284 158 -348 214 -399 346 -58 150 -216
746 -245 926 -4 22 -9 49 -12 60 -3 11 7 -3 21 -32 44 -88 68 -94 80 -17 10
66 41 182 71 262 l25 69 97 12 c120 14 261 50 335 84 149 68 328 221 380 324
21 40 38 58 80 82 29 16 86 63 127 104 41 40 76 73 76 73 1 -1 9 -37 18 -81z
m2655 -819 c69 -35 109 -72 135 -125 67 -132 59 -314 -20 -454 -76 -137 -283
-237 -489 -237 l-63 0 14 53 c8 28 34 150 59 270 25 121 46 222 46 225 4 18
17 -102 19 -168 3 -89 11 -134 25 -133 6 0 24 29 42 64 18 35 32 62 33 59 0
-3 -9 -48 -20 -100 -18 -88 -19 -112 -4 -97 4 3 20 64 35 134 27 120 31 130
66 161 21 18 55 42 76 53 36 19 49 39 24 39 -7 0 -36 -16 -66 -36 l-54 -36 7
28 c14 53 46 259 46 292 0 40 21 42 89 8z m-4181 -78 c6 -59 7 -97 1 -105 -9
-10 2 -69 27 -156 4 -14 -8 -10 -61 19 -36 20 -69 33 -73 29 -4 -4 1 -12 11
-19 159 -99 144 -79 185 -258 15 -65 31 -118 35 -118 10 0 0 83 -18 153 -14
55 -12 59 10 17 9 -17 20 -28 24 -26 5 3 11 47 15 98 8 111 31 266 40 275 3 3
6 -2 6 -13 0 -21 107 -458 139 -568 12 -38 18 -72 15 -75 -3 -3 -51 -6 -107
-5 -168 1 -358 69 -428 153 -73 87 -126 256 -115 361 14 118 106 254 209 305
28 14 56 25 63 25 7 0 15 -35 22 -92z"/>
<path d="M2771 4986 c-16 -19 -20 -17 89 -41 41 -10 124 -35 183 -57 59 -22
115 -38 124 -36 29 6 38 33 25 77 -17 54 -43 61 -247 68 -140 5 -162 4 -174
-11z m362 -35 c28 -11 38 -41 13 -41 -21 0 -142 27 -201 45 l-50 15 105 -4
c58 -3 117 -9 133 -15z"/>
<path d="M4427 4986 c-31 -7 -62 -17 -68 -23 -6 -6 -14 -32 -16 -57 -8 -66 8
-68 152 -18 66 23 152 49 190 58 105 24 103 23 81 40 -25 18 -254 18 -339 0z
m231 -11 c-3 -3 -47 -16 -99 -29 -161 -41 -195 -43 -183 -12 7 17 53 27 174
36 52 4 99 8 104 8 5 1 7 0 4 -3z"/>
<path d="M2290 4641 c-170 -18 -155 -41 25 -41 202 0 339 -21 518 -81 160 -53
181 -63 290 -142 42 -31 73 -47 83 -43 18 7 3 30 -85 135 -50 60 -118 97 -231
126 -145 38 -453 61 -600 46z"/>
<path d="M4990 4644 c-291 -26 -462 -69 -533 -133 -42 -37 -137 -158 -137
-172 0 -20 33 -6 90 36 97 71 157 100 295 145 178 57 260 71 473 77 128 4 182
9 179 17 -2 6 -21 14 -43 18 -52 9 -268 17 -324 12z"/>
<path d="M3090 4587 c0 -3 20 -17 45 -32 25 -14 61 -40 80 -57 23 -19 35 -25
35 -16 0 25 -86 92 -133 103 -15 4 -27 5 -27 2z"/>
<path d="M4394 4576 c-41 -18 -104 -74 -104 -93 0 -10 14 -3 40 21 23 20 56
44 75 53 19 9 35 20 35 25 0 11 -9 10 -46 -6z"/>
<path d="M5294 4448 c-57 -61 -75 -89 -30 -48 35 32 82 90 74 90 -2 0 -22 -19
-44 -42z"/>
<path d="M5383 4468 c-47 -62 -64 -88 -57 -88 11 1 77 90 71 96 -2 2 -9 -1
-14 -8z"/>
<path d="M2159 4434 c-18 -20 -28 -35 -20 -32 13 4 69 68 59 68 -2 0 -20 -16
-39 -36z"/>
<path d="M2221 4410 c-23 -29 -41 -57 -41 -63 0 -12 -1 -13 54 56 21 26 36 50
33 53 -3 3 -24 -18 -46 -46z"/>
<path d="M3797 4189 c-43 -65 -54 -89 -43 -89 8 0 99 151 94 155 -2 3 -25 -27
-51 -66z"/>
<path d="M3637 4175 c-26 -41 -43 -75 -39 -75 10 0 96 140 90 146 -3 2 -26
-30 -51 -71z"/>
<path d="M3706 4169 c-26 -39 -45 -73 -42 -76 2 -3 26 27 52 66 26 39 45 73
42 76 -3 3 -26 -27 -52 -66z"/>
<path d="M3680 3962 c0 -5 6 -17 14 -28 19 -25 31 -12 14 15 -13 21 -28 28
-28 13z"/>
<path d="M3806 3954 c-15 -40 4 -48 22 -9 9 20 9 25 -2 25 -8 0 -17 -7 -20
-16z"/>
<path d="M4271 3840 c-169 -194 -512 -337 -791 -329 -111 4 -118 -3 -72 -67
63 -86 264 -206 393 -234 93 -21 213 -9 289 27 130 61 183 117 235 248 24 60
29 88 33 196 5 142 -3 219 -22 219 -7 0 -36 -27 -65 -60z m1 -135 c-16 -86
-410 -265 -640 -291 -57 -6 -65 -5 -87 16 -14 13 -25 27 -25 31 0 4 28 10 63
14 162 17 336 73 480 152 89 49 196 129 198 147 0 6 4 -1 9 -15 4 -15 5 -39 2
-54z m-2 -240 c0 -3 -9 -23 -20 -44 -44 -88 -183 -170 -300 -179 -49 -3 -70
-1 -70 7 0 22 136 148 185 171 74 35 205 63 205 45z"/>
</g>
</svg>
